<svg width="27" height="26" viewBox="0 0 27 26" fill="none" xmlns="http://www.w3.org/2000/svg">
<path d="M23.1673 2.18812L21.6228 3.73267L20.0783 5.27725L17.7614 2.96039L15.4446 0.643567C15.0155 0.214522 14.4578 0 13.9429 0C13.3852 0 12.8274 0.214522 12.4413 0.643567L9.30926 3.77558L6.17726 6.90761C5.74823 7.33664 5.53368 7.89438 5.53368 8.40925C5.53368 8.967 5.74823 9.52474 6.17726 9.9109L10.0386 13.7723L13.9 17.6337L16.9891 14.5446L20.0783 11.4554L20.8505 12.2278L21.6228 13L17.7614 16.8614L13.9 20.7228L9.2664 16.0891L4.63272 11.4554C4.20367 11.0264 3.6459 10.8119 3.08815 10.8119C2.53039 10.8119 1.97265 11.0264 1.54361 11.4554C1.11456 11.8845 0.90004 12.4422 0.90004 13C0.90004 13.5578 1.11456 14.1155 1.54361 14.5446L6.94955 19.9505L12.3555 25.3564C12.7845 25.7855 13.3423 26 13.8571 26C14.4149 26 14.9727 25.7855 15.3588 25.3564L20.8076 19.9076L26.2565 14.4587C26.6855 14.0297 26.9001 13.4719 26.9001 12.9571C26.9001 12.3993 26.6855 11.8416 26.2565 11.4554L24.7119 9.9109L23.1673 8.36634L24.7119 6.82177L26.2565 5.27725C26.6855 4.84822 26.9001 4.29042 26.9001 3.73267C26.9001 3.17491 26.6855 2.61716 26.2565 2.18812C25.8274 1.75908 25.2697 1.54456 24.7119 1.54456C24.1542 1.54456 23.5964 1.75908 23.1673 2.18812ZM13.9 11.4554L12.3555 9.9109L10.8109 8.36634L12.3555 6.82177L13.9 5.27725L15.4446 6.82177L16.9891 8.36634L15.4446 9.9109L13.9 11.4554Z" fill="black"/>
</svg>
