<svg width="26" height="26" viewBox="0 0 26 26" fill="none" xmlns="http://www.w3.org/2000/svg">
<g clip-path="url(#clip0_37_6652)">
<path d="M12.9848 26C5.82867 25.9913 0.0032576 20.1645 1.35787e-06 13.0114C-0.00325488 5.84097 5.85038 -0.00650623 13.025 5.4332e-06C20.1952 0.0065171 26.0109 5.85725 26 13.0526C25.9891 20.2046 20.154 26.0087 12.9848 26ZM25.5582 12.9788C25.5333 6.04717 19.8707 0.434117 12.9381 0.468845C6.01971 0.503574 0.456961 6.12097 0.472156 13.0592C0.487352 19.9593 6.13476 25.5713 13.0456 25.5518C19.9401 25.5322 25.5832 19.8628 25.5582 12.9788Z" fill="#092DC5"/>
<path d="M14.3611 8.66269C15.1915 8.80703 16.0576 8.93727 16.9108 9.12502C17.0616 9.15866 17.2071 9.41913 17.2722 9.60363C18.1688 12.1334 16.3778 14.9692 13.7077 15.2482C13.1335 15.3078 12.5496 15.2764 11.9765 15.3415C11.5879 15.3849 11.1841 15.4685 10.8357 15.6345C10.3755 15.8537 10.2441 16.2944 10.3397 16.786C10.4363 17.2809 10.7858 17.5891 11.2492 17.5576C11.793 17.5218 12.3433 17.3699 12.8578 17.1799C13.2757 17.0258 13.6447 16.7415 14.0366 16.5179C14.7236 16.1272 15.4617 16.023 16.2367 16.1403C17.2885 16.2987 18.0797 17.3124 17.9408 18.3662C17.9256 18.4779 17.7259 18.6418 17.6022 18.6505C17.1344 18.6841 16.6633 18.6722 16.1933 18.6592C16.0793 18.6559 15.8981 18.6125 15.8655 18.5376C15.6365 18.0102 15.2957 18.2338 14.9711 18.3857C14.2363 18.7276 13.5362 19.2083 12.7645 19.3896C11.9819 19.573 11.1016 19.6077 10.3158 19.4493C9.03391 19.191 8.24698 18.3065 8.07657 16.9737C7.92027 15.7539 8.3425 14.7761 9.40078 14.1032C9.47567 14.0554 9.54622 14.0001 9.65911 13.9198C9.56576 13.7787 9.48544 13.6485 9.39644 13.5236C8.35878 12.052 8.17318 10.4794 8.98181 8.86998C9.78827 7.26485 11.157 6.43896 12.9544 6.3988C14.4154 6.36516 15.8785 6.39229 17.3873 6.39229V8.40765C17.0573 8.40765 16.7371 8.40765 16.418 8.40765C15.2794 8.40765 14.1397 8.39897 13.0011 8.41091C11.8028 8.42284 10.8693 9.21944 10.6414 10.4024C10.4298 11.5007 11.0137 12.6261 12.0318 13.0809C13.0478 13.5345 14.2808 13.1948 14.9342 12.2821C15.6083 11.339 15.5334 10.0377 14.7627 9.17603C14.6205 9.01649 14.4979 8.83959 14.3611 8.66595V8.66269Z" fill="#092DC5"/>
</g>
<defs>
<clipPath id="clip0_37_6652">
<rect width="26" height="26" fill="white"/>
</clipPath>
</defs>
</svg>
