<svg width="22" height="19" viewBox="0 0 22 19" fill="none" xmlns="http://www.w3.org/2000/svg">
<path d="M20.6987 3.89684C20.3695 3.13479 19.895 2.44422 19.3016 1.8638C18.7077 1.28165 18.0075 0.819025 17.2391 0.501079C16.4422 0.17008 15.5876 0.00065584 14.7248 0.00264177C13.5143 0.00264177 12.3333 0.334115 11.3069 0.960231C11.0614 1.11001 10.8281 1.27452 10.6071 1.45376C10.3862 1.27452 10.1529 1.11001 9.90737 0.960231C8.88103 0.334115 7.7 0.00264177 6.48951 0.00264177C5.61786 0.00264177 4.77321 0.169606 3.97522 0.501079C3.20424 0.820276 2.50937 1.27943 1.91272 1.8638C1.31852 2.44357 0.843852 3.13429 0.515625 3.89684C0.17433 4.68992 0 5.53211 0 6.39885C0 7.21648 0.166964 8.06849 0.498438 8.93523C0.775893 9.65956 1.17366 10.4109 1.68192 11.1696C2.48728 12.3703 3.59464 13.6225 4.96964 14.8919C7.24821 16.9962 9.50469 18.4497 9.60045 18.5087L10.1824 18.8819C10.4402 19.0464 10.7717 19.0464 11.0295 18.8819L11.6114 18.5087C11.7071 18.4473 13.9612 16.9962 16.2422 14.8919C17.6172 13.6225 18.7246 12.3703 19.5299 11.1696C20.0382 10.4109 20.4384 9.65956 20.7134 8.93523C21.0449 8.06849 21.2118 7.21648 21.2118 6.39885C21.2143 5.53211 21.04 4.68992 20.6987 3.89684ZM10.6071 16.9397C10.6071 16.9397 1.86607 11.339 1.86607 6.39885C1.86607 3.89684 3.93594 1.86871 6.48951 1.86871C8.28438 1.86871 9.84107 2.8705 10.6071 4.33389C11.3732 2.8705 12.9299 1.86871 14.7248 1.86871C17.2783 1.86871 19.3482 3.89684 19.3482 6.39885C19.3482 11.339 10.6071 16.9397 10.6071 16.9397Z" fill="#6A097D"/>
<path d="M10.6071 16.9397C10.6071 16.9397 1.86607 11.339 1.86607 6.39885C1.86607 3.89684 3.93594 1.86871 6.48951 1.86871C8.28438 1.86871 9.84107 2.8705 10.6071 4.33389C11.3732 2.8705 12.9299 1.86871 14.7248 1.86871C17.2783 1.86871 19.3482 3.89684 19.3482 6.39885C19.3482 11.339 10.6071 16.9397 10.6071 16.9397Z" fill="#6A097D"/>
</svg>
