<svg width="22" height="19" viewBox="0 0 22 19" fill="none" xmlns="http://www.w3.org/2000/svg">
<path d="M20.6987 3.89421C20.3695 3.13216 19.895 2.4416 19.3016 1.86118C18.7077 1.27903 18.0075 0.816401 17.2391 0.498455C16.4422 0.167456 15.5876 -0.00196867 14.7248 1.72584e-05C13.5143 1.72584e-05 12.3333 0.33149 11.3069 0.957607C11.0614 1.10738 10.8281 1.27189 10.6071 1.45113C10.3862 1.27189 10.1529 1.10738 9.90737 0.957607C8.88103 0.33149 7.7 1.72584e-05 6.48951 1.72584e-05C5.61786 1.72584e-05 4.77321 0.166982 3.97522 0.498455C3.20424 0.817651 2.50937 1.2768 1.91272 1.86118C1.31852 2.44094 0.843852 3.13167 0.515625 3.89421C0.17433 4.68729 0 5.52948 0 6.39622C0 7.21386 0.166964 8.06587 0.498438 8.93261C0.775893 9.65694 1.17366 10.4083 1.68192 11.167C2.48728 12.3677 3.59464 13.6199 4.96964 14.8893C7.24821 16.9935 9.50469 18.4471 9.60045 18.506L10.1824 18.8793C10.4402 19.0438 10.7717 19.0438 11.0295 18.8793L11.6114 18.506C11.7071 18.4447 13.9612 16.9935 16.2422 14.8893C17.6172 13.6199 18.7246 12.3677 19.5299 11.167C20.0382 10.4083 20.4384 9.65694 20.7134 8.93261C21.0449 8.06587 21.2118 7.21386 21.2118 6.39622C21.2143 5.52948 21.04 4.68729 20.6987 3.89421ZM10.6071 16.9371C10.6071 16.9371 1.86607 11.3364 1.86607 6.39622C1.86607 3.89421 3.93594 1.86609 6.48951 1.86609C8.28438 1.86609 9.84107 2.86787 10.6071 4.33127C11.3732 2.86787 12.9299 1.86609 14.7248 1.86609C17.2783 1.86609 19.3482 3.89421 19.3482 6.39622C19.3482 11.3364 10.6071 16.9371 10.6071 16.9371Z" fill="white"/>
</svg>
