<svg width="12" height="13" viewBox="0 0 12 13" fill="none" xmlns="http://www.w3.org/2000/svg">
<path d="M10 4.5H8.5V2.5H1.5C0.95 2.5 0.5 2.95 0.5 3.5V9H1.5C1.5 9.83 2.17 10.5 3 10.5C3.83 10.5 4.5 9.83 4.5 9H7.5C7.5 9.83 8.17 10.5 9 10.5C9.83 10.5 10.5 9.83 10.5 9H11.5V6.5L10 4.5ZM9.75 5.25L10.73 6.5H8.5V5.25H9.75ZM3 9.5C2.725 9.5 2.5 9.275 2.5 9C2.5 8.725 2.725 8.5 3 8.5C3.275 8.5 3.5 8.725 3.5 9C3.5 9.275 3.275 9.5 3 9.5ZM4.11 8C3.835 7.695 3.445 7.5 3 7.5C2.555 7.5 2.165 7.695 1.89 8H1.5V3.5H7.5V8H4.11ZM9 9.5C8.725 9.5 8.5 9.275 8.5 9C8.5 8.725 8.725 8.5 9 8.5C9.275 8.5 9.5 8.725 9.5 9C9.5 9.275 9.275 9.5 9 9.5Z" fill="black" fill-opacity="0.85"/>
</svg>
