<svg width="27" height="26" viewBox="0 0 27 26" fill="none" xmlns="http://www.w3.org/2000/svg">
<g clip-path="url(#clip0_56_9437)">
<path d="M26.9 13C26.9 9.425 25.6407 6.3375 23.0813 3.81875C20.5219 1.3 17.475 0 13.9 0C10.325 0 7.23755 1.25937 4.7188 3.81875C2.20005 6.37812 0.900047 9.425 0.900047 13C0.900047 16.575 2.15942 19.6219 4.7188 22.1812C7.23755 24.7406 10.325 26 13.9 26C17.475 26 20.5625 24.7406 23.0813 22.1812C25.6 19.6219 26.9 16.575 26.9 13Z" fill="#00A77E"/>
<path d="M13.8797 20.6172C12.2954 20.6172 10.8329 19.8859 9.85786 18.6266C9.16724 17.7328 8.80161 16.6766 8.80161 15.5391C8.80161 15.1734 8.84224 14.8484 8.92349 14.5234C9.08599 13.3859 9.93911 11.5578 11.4016 8.99844C12.4985 7.12969 13.4329 5.70781 13.4329 5.70781C13.5547 5.54531 13.6766 5.38281 13.8797 5.38281C14.1235 5.38281 14.2454 5.54531 14.3266 5.70781C14.3266 5.70781 15.261 7.12969 16.3579 8.99844C17.8204 11.5172 18.6735 13.3859 18.836 14.5234C18.9172 14.8484 18.9579 15.2141 18.9579 15.5391C18.9579 16.6766 18.5922 17.7328 17.9016 18.6266C16.9266 19.8859 15.4641 20.6172 13.8797 20.6172ZM13.8797 19.2766C15.0579 19.2766 16.1954 18.7484 16.9266 17.7734C17.4547 17.0828 17.7391 16.3109 17.7391 15.4578C17.7391 15.2141 17.6985 14.9297 17.6579 14.6859C17.536 13.7922 16.8454 12.3297 15.7079 10.3391C14.8547 8.83594 14.0829 7.69844 14.0829 7.69844L13.8797 7.41406L13.7172 7.65781C13.7172 7.65781 12.9454 8.79531 12.0922 10.2984C10.9141 12.3297 10.2641 13.7922 10.1422 14.6453C10.1016 14.8891 10.061 15.1734 10.061 15.4172C10.061 16.2703 10.3454 17.0828 10.8735 17.7328C11.5641 18.7078 12.7016 19.2766 13.8797 19.2766Z" fill="white"/>
</g>
<defs>
<clipPath id="clip0_56_9437">
<rect width="26" height="26" fill="white" transform="translate(0.900047)"/>
</clipPath>
</defs>
</svg>
