<svg width="18" height="26" viewBox="0 0 18 26" fill="none" xmlns="http://www.w3.org/2000/svg">
<path d="M4.88857 8.53775C5.07598 7.55903 5.20093 6.95514 5.2634 6.66361C5.65905 4.60206 5.2634 3.18604 4.22221 2.99862C3.65997 2.89451 3.28514 3.22769 3.03525 4.18558C2.51466 6.16384 0.973699 12.1194 0.973699 12.1194L2.82702 9.62059C3.30596 8.97505 4.07644 8.5794 4.88857 8.53775Z" fill="#39B75D" fill-opacity="0.85"/>
<path d="M3.55585 11.3281C3.9515 10.7867 4.57621 10.4952 5.24257 10.4952C5.6174 10.4952 5.99223 10.5993 6.32541 10.7867C6.38788 10.7867 7.78308 11.8279 8.61603 12.4526H10.1986C11.1774 12.4526 12.1352 12.2236 13.0307 11.7863C13.4263 11.578 13.7387 11.2657 13.9469 10.87C14.051 10.641 14.0719 10.3911 13.9886 10.1412C13.9469 10.0371 13.9053 9.95377 13.822 9.8913C13.7595 9.808 13.6762 9.76635 13.5721 9.72471C13.343 9.62059 13.0931 9.57894 12.8433 9.57894H4.86775C4.61786 9.57894 4.36798 9.64141 4.13891 9.76635C3.90985 9.8913 3.72244 10.0579 3.55585 10.2661L0.348985 14.5975C0.307338 14.6808 0.26569 14.7849 0.224043 14.889C0.161571 15.1389 0.224043 15.4096 0.369809 15.6178L3.55585 11.3281Z" fill="#39B75D" fill-opacity="0.85"/>
<path d="M3.09772 14.7224C3.43091 14.2643 3.93068 13.9728 4.47209 13.8895C5.01351 13.8062 5.57575 13.9519 6.03388 14.2851L8.69932 16.2425C9.0325 16.4716 9.30321 16.7631 9.49063 17.1171C9.57392 17.2837 9.63639 17.4712 9.67804 17.6794C9.92793 17.7627 10.1986 17.8252 10.4693 17.8668C10.9066 17.9293 11.3439 17.8668 11.7396 17.7002C11.9895 17.5753 12.1561 17.367 12.2602 17.0963C12.281 16.9922 12.3018 16.9089 12.281 16.8048C12.2602 16.7007 12.2394 16.6174 12.1769 16.5133C12.052 16.305 11.8854 16.1176 11.6771 15.9718L5.88811 11.7238L5.78399 11.6613C5.49246 11.4947 5.11763 11.4531 4.80527 11.5988C4.65951 11.6613 4.55539 11.7446 4.45127 11.8487L4.34715 11.9737L0.369809 17.4087C0.286514 17.5544 0.244866 17.7419 0.244866 17.9085C0.244866 18.075 0.307338 18.2625 0.411457 18.3874L3.09772 14.7224Z" fill="#39B75D" fill-opacity="0.85"/>
<path d="M8.22038 8.53775H11.5938C11.5314 8.37116 11.4481 8.22539 11.3439 8.07963C10.9691 7.45491 10.511 6.89267 9.96957 6.41372C9.49063 5.93478 8.78262 5.76819 8.13708 6.0389C7.61649 6.35125 7.4499 7.01761 7.76225 7.55903L8.22038 8.53775Z" fill="#39B75D" fill-opacity="0.85"/>
<path d="M13.3638 12.7233C13.1348 12.8483 12.8849 12.9316 12.635 13.0149C11.9895 13.2439 11.3439 13.3689 10.6568 13.4105H9.92793L11.3856 14.4934L12.2394 15.1181C12.5725 15.3471 12.8433 15.6595 13.0515 15.9927C13.2806 16.4091 13.343 16.9089 13.1973 17.3462C13.0307 17.8668 12.6558 18.2833 12.1769 18.5332C11.5105 18.8247 10.7609 18.908 10.0529 18.7414L9.53227 18.6373C9.34486 19.0538 9.01168 19.3869 8.5952 19.616C8.01214 19.8867 7.3666 19.9908 6.74189 19.9075C6.11717 19.8034 5.49246 19.616 4.90939 19.3453C4.84692 19.3245 4.78445 19.262 4.7428 19.2204C4.70116 19.1579 4.65951 19.0954 4.63868 19.0329C4.59704 18.8872 4.61786 18.7414 4.70116 18.6165C4.76363 18.5123 4.84692 18.4499 4.97187 18.4082C5.07598 18.3666 5.20093 18.3666 5.30505 18.4082C5.80482 18.6373 6.32541 18.8039 6.86683 18.8872C7.30413 18.9496 7.74143 18.8872 8.13708 18.7206C8.38697 18.5956 8.55356 18.3874 8.63685 18.1167C8.69932 17.9293 8.6785 17.7002 8.57438 17.5336C8.47026 17.3879 8.34532 17.2421 8.19955 17.138L5.42999 15.0764C4.97187 14.7432 4.34715 14.8057 3.97232 15.2222L3.88903 15.3055L0.411457 20.0325C0.203219 20.324 0.161571 20.6988 0.307338 21.032C0.369809 21.157 0.453104 21.2611 0.557223 21.3652C2.13983 22.6563 3.78491 23.8224 5.53411 24.9052C5.65905 24.9885 6.0547 25.2176 6.07553 25.2384C9.26156 26.9251 13.1973 25.7174 14.884 22.5313C15.3838 21.5734 15.6545 20.5322 15.6336 19.4494C15.6336 18.5123 15.4254 17.5961 15.0506 16.7423C14.884 16.305 13.3847 12.7233 13.3638 12.7233Z" fill="#39B75D" fill-opacity="0.85"/>
<path d="M8.61603 0C8.44944 0 8.28285 0.0832951 8.17873 0.208238C8.07461 0.333181 8.01214 0.499771 8.01214 0.666361C8.01214 1.27025 8.09543 2.45721 8.11626 3.04027C8.11626 3.16521 8.17873 3.29016 8.28285 3.39428C8.49108 3.60251 8.82426 3.60251 9.0325 3.39428C9.1158 3.31098 9.17827 3.18604 9.17827 3.04027C9.17827 2.43638 9.28239 1.20778 9.28239 0.60389C9.28239 0.520595 9.26156 0.437299 9.21992 0.354004C9.17827 0.270709 9.13662 0.208238 9.07415 0.145766C9.01168 0.0832951 8.94921 0.0416476 8.86591 0.0208238C8.78262 0 8.69932 0 8.61603 0Z" fill="#39B75D" fill-opacity="0.85"/>
<path d="M14.0094 1.68673C13.7179 1.49931 13.3222 1.58261 13.1348 1.87414L11.8437 3.87322C11.6771 4.12311 11.7396 4.43547 11.9895 4.60206C12.2185 4.76865 12.5517 4.727 12.7183 4.49794C13.0723 4.01899 13.8636 3.0611 14.1552 2.56133C14.1968 2.49885 14.2384 2.41556 14.2593 2.33226C14.2801 2.24897 14.2801 2.16567 14.2593 2.08238C14.2384 1.99908 14.2176 1.91579 14.176 1.85332C14.1343 1.79085 14.0719 1.72837 14.0094 1.68673Z" fill="#39B75D" fill-opacity="0.85"/>
<path d="M17.4453 6.12219C17.2995 5.80983 16.9455 5.64324 16.6124 5.78901L14.4467 6.70526C14.176 6.80938 14.051 7.10091 14.1343 7.37162C14.1552 7.43409 14.1968 7.49656 14.2384 7.55903C14.2801 7.6215 14.3426 7.66315 14.405 7.68398C14.4675 7.72562 14.5508 7.74645 14.6133 7.74645C14.6757 7.74645 14.759 7.74645 14.8215 7.72562C15.3838 7.53821 16.5707 7.20503 17.133 6.99679C17.2162 6.95514 17.2787 6.9135 17.3412 6.85102C17.4037 6.78855 17.4453 6.72608 17.487 6.64279C17.5078 6.55949 17.5286 6.4762 17.5286 6.3929C17.5078 6.30961 17.487 6.20549 17.4453 6.12219Z" fill="#39B75D" fill-opacity="0.85"/>
</svg>
